<?xml version="1.0" standalone="no"?>
<!DOCTYPE svg PUBLIC "-//W3C//DTD SVG 20010904//EN"
 "http://www.w3.org/TR/2001/REC-SVG-20010904/DTD/svg10.dtd">
<svg version="1.0" xmlns="http://www.w3.org/2000/svg"
 width="700.000000pt" height="700.000000pt" viewBox="0 0 700.000000 700.000000"
 preserveAspectRatio="xMidYMid meet">
<metadata>
Created by potrace 1.11, written by Peter Selinger 2001-2013
</metadata>
<g transform="translate(0.000000,700.000000) scale(0.100000,-0.100000)"
fill="#000000" stroke="none">
<path d="M843 6985 c-427 -78 -753 -406 -828 -834 -22 -126 -22 -5176 0 -5302
37 -213 134 -400 284 -550 154 -152 337 -247 550 -284 126 -22 5176 -22 5302
0 324 56 594 257 741 550 46 90 84 211 97 309 15 109 15 5143 0 5252 -20 148
-82 306 -172 439 -53 78 -175 200 -256 254 -87 59 -229 124 -331 153 l-85 23
-2615 2 c-2120 1 -2629 -1 -2687 -12z m4732 -868 c263 -80 462 -279 542 -542
17 -57 18 -166 21 -2040 2 -1783 1 -1988 -13 -2060 -61 -300 -296 -537 -597
-599 -69 -14 -285 -16 -2028 -16 -1743 0 -1959 2 -2028 16 -299 62 -535 297
-596 596 -14 69 -16 289 -16 2028 0 2141 -3 2022 59 2171 76 180 230 334 410
410 146 61 19 58 2196 56 1886 -2 1993 -3 2050 -20z"/>
<path d="M1387 4375 c-103 -26 -186 -74 -269 -156 -63 -62 -85 -91 -117 -160
-45 -98 -61 -164 -61 -257 1 -263 189 -500 450 -567 87 -23 240 -16 327 15
166 58 301 193 366 366 18 50 22 79 22 189 0 110 -4 139 -22 189 -66 176 -207
314 -372 367 -86 28 -243 34 -324 14z"/>
<path d="M5308 4366 c-180 -53 -321 -188 -391 -372 -18 -50 -22 -79 -22 -189
0 -110 4 -139 22 -189 49 -130 130 -232 242 -305 90 -58 169 -82 286 -88 177
-9 308 41 437 168 63 61 85 92 117 160 82 174 82 333 0 507 -118 255 -419 389
-691 308z"/>
<path d="M3467 3822 c-21 -3 -88 -64 -271 -250 -467 -476 -859 -880 -868 -895
-5 -10 -1 -23 11 -38 l19 -24 1142 0 1142 0 19 23 c13 17 16 29 9 40 -10 19
-1075 1111 -1099 1128 -20 14 -68 21 -104 16z"/>
</g>
</svg>
